<svg width="26" height="26" viewBox="0 0 26 26" fill="none" xmlns="http://www.w3.org/2000/svg">
<path d="M7.89982 14.8371C9.66232 14.8371 11.0748 16.2634 11.0748 18.0384V22.2996C11.0748 24.0621 9.66232 25.4996 7.89982 25.4996H3.67482C1.92482 25.4996 0.499817 24.0621 0.499817 22.2996V18.0384C0.499817 16.2634 1.92482 14.8371 3.67482 14.8371H7.89982ZM22.3249 14.8371C24.0749 14.8371 25.4999 16.2634 25.4999 18.0384V22.2996C25.4999 24.0621 24.0749 25.4996 22.3249 25.4996H18.0999C16.3374 25.4996 14.9249 24.0621 14.9249 22.2996V18.0384C14.9249 16.2634 16.3374 14.8371 18.0999 14.8371H22.3249ZM7.89982 0.5C9.66232 0.5 11.0748 1.9375 11.0748 3.70125V7.9625C11.0748 9.7375 9.66232 11.1625 7.89982 11.1625H3.67482C1.92482 11.1625 0.499817 9.7375 0.499817 7.9625V3.70125C0.499817 1.9375 1.92482 0.5 3.67482 0.5H7.89982ZM22.3249 0.5C24.0749 0.5 25.4999 1.9375 25.4999 3.70125V7.9625C25.4999 9.7375 24.0749 11.1625 22.3249 11.1625H18.0999C16.3374 11.1625 14.9249 9.7375 14.9249 7.9625V3.70125C14.9249 1.9375 16.3374 0.5 18.0999 0.5H22.3249Z" fill="#00D689"/>
</svg>
