<svg width="142" height="24" viewBox="0 0 142 24" fill="none" xmlns="http://www.w3.org/2000/svg">
<path d="M24.165 11.82V11.77C24.165 11.695 24.165 11.62 24.165 11.545C24.165 11.47 24.165 11.49 24.165 11.46C24.165 11.43 24.165 11.33 24.165 11.265C24.165 11.2 24.165 11.055 24.14 10.95C24.115 10.845 24.14 10.81 24.14 10.74V10.64C24.14 10.575 24.14 10.515 24.14 10.45C24.14 10.385 24.14 10.415 24.14 10.395C24.14 10.375 24.14 10.25 24.105 10.18V10.15L24.06 9.90498V9.87498C24.06 9.80998 24.035 9.74498 24.025 9.67998C24.015 9.61498 24.025 9.67998 24.025 9.64998C24.025 9.61998 24.025 9.60998 24.025 9.58998C24.025 9.56998 23.99 9.43998 23.975 9.36498C23.975 9.27998 23.94 9.19998 23.92 9.11998L23.875 8.93998C23.875 8.90998 23.875 8.87998 23.85 8.85498L23.79 8.64998V8.59498C23.765 8.51998 23.745 8.44498 23.72 8.36998C23.695 8.29498 23.72 8.36998 23.72 8.36998C23.72 8.36998 23.66 8.20498 23.635 8.11998L23.545 7.87998C23.515 7.79998 23.485 7.71498 23.45 7.63498C23.415 7.55498 23.395 7.49998 23.365 7.42998C23.3572 7.40579 23.3471 7.38236 23.335 7.35998C23.31 7.29498 23.28 7.22498 23.25 7.15998C23.175 6.99998 23.1 6.83998 23.02 6.65998L22.9 6.42498L22.795 6.22998C22.745 6.14498 22.695 6.05498 22.64 5.96998C22.585 5.88498 22.565 5.83998 22.525 5.77498L22.495 5.72998C22.455 5.65998 22.41 5.59498 22.365 5.52498C22.366 5.51167 22.366 5.4983 22.365 5.48498L22.245 5.30998L22.12 5.12998L22.06 5.04498C21.985 4.93998 21.91 4.83498 21.83 4.73498L21.775 4.66498C21.625 4.47498 21.47 4.28998 21.31 4.10498L21.245 4.03498C20.9752 3.73519 20.6898 3.44979 20.39 3.17998L20.285 3.08498C20.14 2.94998 19.99 2.82498 19.835 2.69998L19.73 2.61998C19.615 2.52998 19.5 2.43998 19.38 2.35498L19.275 2.27998C19.155 2.18998 19.03 2.10498 18.905 2.02498L18.715 1.89998L18.525 1.78498L18.445 1.73498C18.155 1.56498 17.86 1.40498 17.555 1.23498L17.39 1.15498L17.285 1.10498L17.12 1.03498L17.035 0.994984L16.695 0.854982L16.59 0.814983L16.39 0.739983L16.185 0.669983L16.085 0.634983L15.765 0.534983L15.62 0.494984L15.38 0.424982L15.19 0.379982C14.97 0.324982 14.75 0.279983 14.53 0.239983L14.355 0.204983H14.325H14.145H14.005L13.74 0.169983H13.585H13.37H13.265H12.955H11.71H11.405H11.3H11.085H10.925L10.665 0.204983H10.52L10.31 0.234983L10.135 0.269983C9.91504 0.309983 9.69504 0.354983 9.48004 0.409983L9.29003 0.454983L9.04503 0.524982L8.90503 0.564983L8.58004 0.664984L8.48503 0.699984L8.27503 0.769983L8.07503 0.844982L7.97003 0.884983L7.63003 1.02498L7.54503 1.06498L7.38003 1.13498L7.28003 1.18498L7.11503 1.26498C6.81003 1.41498 6.51503 1.57498 6.22503 1.76498L6.14503 1.81498L5.95504 1.92998L5.77003 2.05498L5.39503 2.30998L5.29003 2.38498C5.17503 2.46998 5.05503 2.55998 4.94503 2.64998L4.83503 2.72998C4.68503 2.85498 4.53504 2.97998 4.38504 3.11498L4.28003 3.20998C3.87251 3.44893 3.48011 3.71277 3.10504 3.99998L3.04503 4.06998C2.88003 4.25498 2.72503 4.43998 2.58003 4.62998L2.52003 4.69998C2.44003 4.79998 2.36503 4.90498 2.29003 5.00998L2.23004 5.09498L2.10504 5.27498C2.06504 5.32998 2.02503 5.38998 1.99003 5.44998L1.96003 5.48998L1.83004 5.69498C1.81984 5.70887 1.81144 5.72399 1.80503 5.73998L1.68503 5.93498L1.53504 6.19498C1.50004 6.25998 1.46003 6.32498 1.43003 6.38998L1.30503 6.62498C1.22503 6.77998 1.15004 6.93998 1.08004 7.12498C1.08004 7.18998 1.02504 7.25998 0.995036 7.32498L0.96503 7.39498L0.880031 7.59998L0.785037 7.84498C0.755037 7.92498 0.72503 8.00498 0.70003 8.08498C0.67003 8.16998 0.640031 8.24998 0.615031 8.33498L0.540034 8.55998V8.61498L0.480037 8.81998C0.480037 8.81998 0.480037 8.87498 0.480037 8.90498C0.480037 8.93498 0.445034 9.02498 0.430034 9.08498L0.370036 9.32998C0.370036 9.40498 0.335033 9.47998 0.320033 9.55498V9.61498C0.320033 9.61498 0.320033 9.61498 0.320033 9.64498C0.320033 9.67498 0.320032 9.77498 0.280032 9.83998V9.86998C0.280032 9.94998 0.280031 10.03 0.240031 10.115C0.237692 10.1248 0.237692 10.1351 0.240031 10.145C0.240031 10.215 0.215032 10.285 0.210032 10.36C0.207678 10.3782 0.207678 10.3967 0.210032 10.415C0.210032 10.48 0.210031 10.54 0.185031 10.605C0.182806 10.6383 0.182806 10.6717 0.185031 10.705C0.185031 10.775 0.185037 10.845 0.160037 10.915C0.135037 10.985 0.160037 11.125 0.160037 11.23C0.160037 11.335 0.160037 11.36 0.160037 11.425C0.16245 11.4533 0.16245 11.4817 0.160037 11.51C0.160037 11.585 0.160037 11.66 0.160037 11.735V11.785C0.160037 11.87 0.160037 11.96 0.160037 12.05C0.160037 12.14 0.160037 12.255 0.160037 12.36V12.515C0.160037 12.58 0.160037 12.645 0.160037 12.715C0.160037 12.785 0.160037 12.815 0.160037 12.865C0.160037 12.915 0.160037 12.94 0.160037 12.98C0.160037 13.02 0.160037 13.045 0.160037 13.08C0.157567 13.1149 0.157567 13.15 0.160037 13.185V13.345C0.160037 13.38 0.160037 13.415 0.160037 13.445V13.585C0.160037 13.64 0.160031 13.69 0.185031 13.74C0.210031 13.79 0.185034 13.905 0.220034 13.985C0.255034 14.065 0.220036 14.09 0.245036 14.14L0.275035 14.295C0.277476 14.3199 0.277476 14.345 0.275035 14.37C0.275035 14.45 0.31003 14.525 0.32503 14.605C0.36003 14.76 0.395031 14.915 0.435031 15.07L0.555034 15.5C0.712518 16.0277 0.906315 16.544 1.13504 17.045C1.14962 17.0826 1.16631 17.1193 1.18503 17.155C1.24503 17.28 1.30504 17.41 1.37004 17.535L1.51004 17.805C1.6367 18.0283 1.7667 18.2483 1.90003 18.465L1.98004 18.595C2.50737 19.4081 3.12827 20.1566 3.83003 20.825L3.94503 20.925L4.01004 20.98L4.19503 21.15C5.07379 21.8963 6.14779 22.3756 7.29018 22.5311C8.43257 22.6867 9.59561 22.512 10.6419 22.0278C11.6882 21.5435 12.5741 20.7699 13.1948 19.7984C13.8156 18.8268 14.1453 17.6979 14.145 16.545V12.95H12.145C11.6146 12.95 11.1059 13.1607 10.7308 13.5358C10.3558 13.9108 10.145 14.4196 10.145 14.95V16.53C10.1506 17.0626 9.94759 17.5762 9.57949 17.9611C9.21138 18.346 8.70733 18.5717 8.17504 18.59C7.70104 18.601 7.23854 18.4433 6.87004 18.145C6.8276 18.1129 6.7875 18.0778 6.75003 18.04L6.71503 18.005C5.89294 17.2529 5.23702 16.3374 4.78929 15.3171C4.34157 14.2968 4.11191 13.1942 4.11503 12.08C4.11509 10.6286 4.50731 9.20419 5.25021 7.95735C5.99311 6.7105 7.05909 5.68754 8.33547 4.99661C9.61185 4.30568 11.0512 3.97245 12.5013 4.03215C13.9515 4.09185 15.3586 4.54226 16.5739 5.33576C17.7891 6.12926 18.7674 7.23637 19.4053 8.54006C20.0432 9.84375 20.317 11.2956 20.1978 12.7421C20.0786 14.1885 19.5707 15.5759 18.728 16.7576C17.8852 17.9392 16.7388 18.8712 15.41 19.455C15.0443 19.6075 14.7321 19.8653 14.5132 20.1956C14.2942 20.5258 14.1782 20.9137 14.18 21.31V24C15.1347 23.8396 16.0665 23.5642 16.955 23.18H17.005L17.205 23.09L17.405 22.995L17.61 22.895L17.79 22.8L17.935 22.725L18.045 22.665L18.26 22.545C18.4 22.465 18.535 22.38 18.675 22.29L18.785 22.22C18.985 22.085 19.185 21.945 19.375 21.8L19.495 21.715L19.835 21.44C19.91 21.38 19.985 21.32 20.055 21.255L20.165 21.16L20.38 20.965L20.485 20.865L20.59 20.765L20.795 20.56C20.895 20.455 20.995 20.35 21.09 20.24L21.19 20.135L21.285 20.025L21.38 19.915L21.47 19.805C21.565 19.695 21.655 19.58 21.74 19.465C21.825 19.35 21.86 19.31 21.915 19.23C21.97 19.15 21.975 19.155 22 19.115L22.17 18.875C22.17 18.835 22.22 18.795 22.25 18.755C22.28 18.715 22.355 18.59 22.405 18.51L22.48 18.385C22.535 18.3 22.58 18.215 22.63 18.135L22.7 18.01L22.84 17.75L22.9 17.64L22.975 17.49L23.065 17.305L23.155 17.11C23.155 17.06 23.2 17.01 23.225 16.955C23.25 16.9 23.265 16.865 23.28 16.82L23.34 16.685L23.415 16.49C23.44 16.43 23.465 16.365 23.485 16.305C23.505 16.245 23.54 16.16 23.565 16.085C23.59 16.01 23.61 15.955 23.63 15.885C23.65 15.815 23.68 15.745 23.7 15.675L23.76 15.465C23.76 15.405 23.795 15.35 23.81 15.295C23.825 15.24 23.81 15.235 23.81 15.205C23.8193 15.1594 23.831 15.1143 23.845 15.07C23.845 14.975 23.89 14.885 23.91 14.79C23.93 14.695 23.91 14.685 23.945 14.635C23.98 14.585 23.98 14.465 23.995 14.385C24.01 14.305 24.02 14.235 24.035 14.16L24.065 13.985C24.065 13.935 24.065 13.89 24.065 13.845C24.065 13.795 24.065 13.745 24.065 13.695C24.065 13.645 24.065 13.58 24.065 13.52C24.065 13.46 24.065 13.38 24.065 13.305V13.09C24.065 13.09 24.065 13.09 24.065 13.06C24.065 13.03 24.065 12.94 24.065 12.88C24.065 12.82 24.065 12.815 24.065 12.785C24.065 12.755 24.065 12.675 24.065 12.62C24.065 12.565 24.065 12.465 24.065 12.39V11.89L24.165 11.82Z" fill="#00D689"/>
<path d="M11.7801 6.58496C12.0841 6.58496 12.3851 6.64484 12.666 6.76118C12.9469 6.87752 13.2021 7.04804 13.417 7.26301C13.632 7.47798 13.8025 7.73318 13.9189 8.01405C14.0352 8.29492 14.0951 8.59595 14.0951 8.89996V11.215H11.7801C11.1661 11.215 10.5773 10.9711 10.1431 10.5369C9.709 10.1028 9.46509 9.51394 9.46509 8.89996C9.46509 8.59595 9.52497 8.29492 9.64131 8.01405C9.75765 7.73318 9.92818 7.47798 10.1431 7.26301C10.3581 7.04804 10.6133 6.87752 10.8942 6.76118C11.175 6.64484 11.4761 6.58496 11.7801 6.58496Z" fill="#00D689"/>
<path d="M36.0801 12.245L34.5451 12.035C34.1322 12.0086 33.7368 11.8588 33.4101 11.605C33.3051 11.492 33.2243 11.3588 33.1727 11.2135C33.1211 11.0682 33.0998 10.9138 33.1101 10.76C33.1062 10.5975 33.142 10.4366 33.2143 10.2911C33.2866 10.1456 33.3933 10.02 33.5251 9.92496C33.9533 9.68235 34.4446 9.57433 34.9351 9.61496C35.5157 9.61656 36.0889 9.74452 36.6151 9.98996C37.1721 10.2418 37.68 10.5906 38.1151 11.02L40.3301 8.74996C39.9801 8.42496 39.6301 8.12496 39.2751 7.85496C38.9113 7.58315 38.517 7.35493 38.1001 7.17496C37.6307 6.98185 37.1409 6.84263 36.6401 6.75996C36.0154 6.6578 35.3831 6.60929 34.7501 6.61496C34.0041 6.60537 33.2614 6.71509 32.5501 6.93996C31.9406 7.13674 31.374 7.44722 30.8801 7.85496C30.425 8.23826 30.0612 8.71825 29.8151 9.25996C29.5567 9.82972 29.4269 10.4494 29.4351 11.075C29.4351 13.505 30.9734 14.9116 34.0501 15.295L35.5501 15.48C36.4701 15.6 36.9301 15.98 36.9301 16.625C36.9366 16.8073 36.8996 16.9885 36.8222 17.1537C36.7448 17.3188 36.6293 17.4633 36.4851 17.575C36.0074 17.8576 35.4526 17.9818 34.9001 17.93C34.2051 17.9388 33.5184 17.7774 32.9001 17.46C32.2909 17.1313 31.7442 16.698 31.2851 16.18L28.9651 18.5C29.6775 19.3173 30.5659 19.9623 31.5636 20.3867C32.5613 20.8111 33.6422 21.0036 34.7251 20.95C35.541 20.9596 36.3537 20.8449 37.1351 20.61C37.8063 20.4133 38.4341 20.0909 38.9851 19.66C39.4826 19.2711 39.8888 18.7778 40.1751 18.215C40.4531 17.6471 40.5952 17.0223 40.5901 16.39C40.5901 14.03 39.0868 12.6483 36.0801 12.245Z" fill="#00D689"/>
<path d="M54.3551 14.75V13.6C54.3577 12.7063 54.2382 11.8164 54.0001 10.955C53.7836 10.1427 53.4024 9.38368 52.8801 8.725C52.3427 8.06392 51.6577 7.53816 50.8801 7.19C49.9746 6.78739 48.9908 6.59099 48.0001 6.615C47.0624 6.59521 46.1304 6.76529 45.2601 7.115C44.4926 7.43898 43.8087 7.93308 43.2601 8.56C42.6863 9.21858 42.2571 9.99019 42.0001 10.825C41.4336 12.7526 41.4336 14.8024 42.0001 16.73C42.262 17.5706 42.702 18.3448 43.2901 19C43.8658 19.624 44.5728 20.1124 45.3601 20.43C46.248 20.7792 47.1962 20.9492 48.1501 20.93C49.2951 20.949 50.4329 20.7452 51.5001 20.33C52.4188 19.9726 53.2371 19.3978 53.8851 18.655L51.9551 16.25C51.5357 16.6895 51.0638 17.0757 50.5501 17.4C49.9595 17.7499 49.2811 17.9234 48.5951 17.9C48.1785 17.9374 47.7587 17.8863 47.3632 17.7501C46.9677 17.614 46.6055 17.3959 46.3001 17.11C45.7895 16.5217 45.5277 15.7579 45.5701 14.98V14.75H54.3551ZM45.5701 12.25C45.5352 11.5101 45.7717 10.7829 46.2351 10.205C46.4639 9.94619 46.7482 9.74249 47.0669 9.60915C47.3855 9.4758 47.7302 9.41627 48.0751 9.435C48.4046 9.41044 48.7351 9.46792 49.037 9.60228C49.3389 9.73665 49.6028 9.94373 49.8051 10.205C50.1993 10.7954 50.3954 11.4958 50.3651 12.205V12.5H45.5701V12.25Z" fill="#00D689"/>
<path d="M80.37 8.39501V17.09C80.371 18.1751 79.98 19.224 79.2688 20.0436C78.5577 20.8631 77.5744 21.3981 76.5 21.55C76.285 21.5843 76.0677 21.6011 75.85 21.6C75.6307 21.601 75.4116 21.5842 75.195 21.55C74.1233 21.3948 73.1436 20.8584 72.4355 20.0392C71.7274 19.2199 71.3384 18.1728 71.34 17.09V12.35C71.34 10.6133 70.715 9.74501 69.465 9.74501C68.9036 9.74237 68.3558 9.91738 67.9 10.245C67.6656 10.4154 67.4781 10.6423 67.3549 10.9045C67.2316 11.1667 67.1766 11.4558 67.195 11.745V20.61H63.35V12.35C63.35 10.615 62.72 9.74501 61.47 9.74501C61.1925 9.74322 60.9163 9.78197 60.65 9.86001C60.3838 9.9368 60.1356 10.066 59.92 10.24C59.7118 10.4154 59.5417 10.6315 59.42 10.875C59.2859 11.1469 59.2191 11.4469 59.225 11.75V20.61H55.365V9.11001C55.365 8.53184 55.5947 7.97735 56.0035 7.56852C56.4123 7.15969 56.9668 6.93001 57.545 6.93001H59.225V9.25001H59.38C59.6202 8.52666 60.0522 7.88207 60.63 7.38501C61.3161 6.83881 62.1795 6.56467 63.055 6.61501C63.9094 6.59019 64.7497 6.83703 65.455 7.32001C66.1444 7.83158 66.6467 8.55529 66.885 9.38001H66.965C67.2258 8.57553 67.7555 7.88524 68.465 7.42501C68.844 7.17372 69.2563 6.9768 69.69 6.84001C70.1614 6.68693 70.6544 6.61096 71.15 6.61501C71.7247 6.58663 72.2977 6.69777 72.8201 6.93895C73.3425 7.18014 73.7988 7.54419 74.15 8.00001C74.8622 9.06706 75.2288 10.3274 75.2 11.61C75.2 11.745 75.2 11.88 75.2 12.015V17.09C75.2006 17.1784 75.2189 17.2658 75.254 17.3469C75.289 17.4281 75.3399 17.5014 75.4038 17.5625C75.4677 17.6236 75.5432 17.6712 75.6259 17.7026C75.7085 17.7339 75.7966 17.7484 75.885 17.745C76.0556 17.7287 76.2137 17.6485 76.3277 17.5206C76.4418 17.3926 76.5033 17.2264 76.5 17.055V10.555C76.5 9.97684 76.7297 9.42235 77.1385 9.01352C77.5473 8.60469 78.1018 8.37501 78.68 8.37501L80.37 8.39501Z" fill="#00D689"/>
<path d="M90.6151 15.815C90.4365 16.3526 90.1469 16.8466 89.7651 17.265C89.5402 17.4816 89.272 17.6479 88.9781 17.7531C88.6841 17.8583 88.3712 17.8998 88.0601 17.875C87.7247 17.8977 87.3887 17.8402 87.0801 17.7071C86.7714 17.5741 86.4988 17.3694 86.2851 17.11C85.859 16.5087 85.6493 15.7808 85.6901 15.045V12.5C85.6493 11.7642 85.859 11.0363 86.2851 10.435C86.4988 10.1756 86.7714 9.97091 87.0801 9.83787C87.3887 9.70483 87.7247 9.64728 88.0601 9.66999C88.6411 9.6357 89.2122 9.83148 89.65 10.215C90.0277 10.5739 90.2904 11.0368 90.4051 11.545L93.5351 10.19C93.1737 9.11834 92.4712 8.19457 91.5351 7.55999C90.4904 6.89962 89.27 6.57185 88.0351 6.61999C87.0993 6.60465 86.1698 6.77458 85.3001 7.11999C84.5295 7.43374 83.8441 7.92549 83.3001 8.55499C82.743 9.21577 82.3262 9.983 82.0751 10.81C81.7848 11.7676 81.6448 12.7645 81.6601 13.765C81.6456 14.772 81.7856 15.7753 82.0751 16.74C82.3267 17.5714 82.749 18.3411 83.3151 19C83.8635 19.6234 84.5477 20.1127 85.3151 20.43C86.1834 20.7802 87.1139 20.9504 88.0501 20.93C89.2663 20.9644 90.4659 20.641 91.5001 20C92.5063 19.3047 93.2453 18.287 93.5951 17.115L90.6151 15.815Z" fill="#00D689"/>
<path d="M107 10.785C106.732 9.95675 106.302 9.19015 105.735 8.53C105.184 7.91124 104.501 7.42568 103.735 7.11C101.997 6.45023 100.078 6.45023 98.3399 7.11C97.5739 7.42506 96.8899 7.91071 96.3399 8.53C95.769 9.18761 95.3385 9.95498 95.0749 10.785C94.4815 12.7222 94.4815 14.7927 95.0749 16.73C95.3305 17.5617 95.7505 18.3336 96.3099 19C96.8565 19.6267 97.5411 20.118 98.3099 20.435C100.048 21.0948 101.967 21.0948 103.705 20.435C104.473 20.1175 105.158 19.6263 105.705 19C106.283 18.3365 106.723 17.5649 107 16.73C107.587 14.7918 107.587 12.7232 107 10.785ZM103.425 15.165C103.472 15.8853 103.251 16.5977 102.805 17.165C102.325 17.6182 101.69 17.8707 101.03 17.8707C100.37 17.8707 99.7348 17.6182 99.2549 17.165C98.8067 16.5984 98.5841 15.886 98.6299 15.165V12.375C98.5841 11.654 98.8067 10.9416 99.2549 10.375C99.7348 9.92176 100.37 9.66925 101.03 9.66925C101.69 9.66925 102.325 9.92176 102.805 10.375C103.251 10.9423 103.472 11.6547 103.425 12.375V15.165Z" fill="#00D689"/>
<path d="M112.67 16.605V2.40002H108.815V16.86C108.747 17.8752 109.079 18.8768 109.74 19.65C110.353 20.29 111.322 20.61 112.645 20.61H115.315V17.61H113.685C113.552 17.612 113.42 17.5875 113.297 17.5378C113.173 17.4881 113.061 17.4143 112.966 17.3207C112.872 17.2271 112.797 17.1156 112.746 16.9927C112.695 16.8699 112.669 16.738 112.67 16.605Z" fill="#00D689"/>
<path d="M128.285 10.785C128.021 9.95617 127.593 9.18917 127.025 8.53C126.474 7.91215 125.79 7.42675 125.025 7.11C123.287 6.45023 121.368 6.45023 119.63 7.11C118.864 7.42506 118.18 7.91071 117.63 8.53C117.059 9.18761 116.629 9.95498 116.365 10.785C115.778 12.7232 115.778 14.7918 116.365 16.73C116.625 17.5629 117.05 18.3349 117.615 19C118.162 19.6267 118.846 20.118 119.615 20.435C121.353 21.0948 123.272 21.0948 125.01 20.435C125.778 20.1161 126.462 19.6251 127.01 19C127.577 18.3365 128.005 17.5664 128.27 16.735C128.863 14.7977 128.863 12.7273 128.27 10.79L128.285 10.785ZM124.715 15.165C124.763 15.8862 124.54 16.5993 124.09 17.165C123.611 17.6179 122.977 17.8703 122.318 17.8703C121.658 17.8703 121.024 17.6179 120.545 17.165C120.097 16.5984 119.874 15.886 119.92 15.165V12.375C119.874 11.654 120.097 10.9416 120.545 10.375C121.024 9.92209 121.658 9.66974 122.318 9.66974C122.977 9.66974 123.611 9.92209 124.09 10.375C124.54 10.9407 124.763 11.6538 124.715 12.375V15.165Z" fill="#00D689"/>
<path d="M140.735 8.00001C140.354 7.5266 139.865 7.1518 139.309 6.90725C138.753 6.6627 138.146 6.55561 137.54 6.59501C136.623 6.54194 135.719 6.82853 135 7.40001C134.412 7.88811 133.97 8.52795 133.72 9.25001H133.565V6.93001H131.89C131.312 6.93001 130.757 7.15968 130.348 7.56851C129.94 7.97734 129.71 8.53183 129.71 9.11001V20.61H133.565V11.75C133.559 11.4452 133.631 11.144 133.775 10.875C133.914 10.6258 134.105 10.4093 134.335 10.24C134.574 10.0641 134.843 9.93519 135.13 9.86001C135.427 9.78152 135.733 9.74284 136.04 9.74501C136.324 9.71004 136.613 9.75082 136.876 9.86321C137.139 9.9756 137.368 10.1556 137.54 10.385C137.863 10.9872 138.008 11.6685 137.96 12.35V20.61H141.815V12.035C141.815 10.3017 141.455 8.95667 140.735 8.00001Z" fill="#00D689"/>
<path d="M80.37 6.76502H78.185C77.8981 6.76502 77.6139 6.70851 77.3488 6.5987C77.0837 6.48889 76.8429 6.32795 76.64 6.12505C76.4371 5.92216 76.2761 5.68128 76.1663 5.41619C76.0565 5.15109 76 4.86696 76 4.58002C76 4.00185 76.2297 3.44736 76.6385 3.03853C77.0473 2.6297 77.6018 2.40002 78.18 2.40002C78.7586 2.40002 79.3136 2.62954 79.7233 3.03823C80.1329 3.44691 80.3637 4.00139 80.365 4.58002L80.37 6.76502Z" fill="#00D689"/>
</svg>
