<svg width="178" height="30" viewBox="0 0 178 30" fill="none" xmlns="http://www.w3.org/2000/svg">
<g clip-path="url(#clip0_2_1424)">
<path d="M30.2063 14.775V14.7125C30.2063 14.6188 30.2063 14.525 30.2063 14.4313C30.2063 14.3375 30.2063 14.3625 30.2063 14.325C30.2063 14.2875 30.2063 14.1625 30.2063 14.0813C30.2063 14 30.2063 13.8188 30.175 13.6875C30.1438 13.5563 30.175 13.5125 30.175 13.425V13.3C30.175 13.2188 30.175 13.1438 30.175 13.0625C30.175 12.9813 30.175 13.0188 30.175 12.9938C30.175 12.9688 30.175 12.8125 30.1313 12.725V12.6875L30.075 12.3813V12.3438C30.075 12.2625 30.075 12.1813 30.0313 12.1C29.9875 12.0188 30.0313 12.1 30.0313 12.0625C30.0313 12.025 30.0313 12.0125 30.0313 11.9875C30.0313 11.9625 29.9875 11.8 29.9688 11.7063C29.9688 11.6 29.925 11.5 29.9 11.4L29.8438 11.175C29.8438 11.1375 29.8438 11.1 29.8438 11.0688L29.7688 10.8125V10.7438C29.7688 10.65 29.7125 10.5563 29.6813 10.4625C29.65 10.3688 29.6813 10.4625 29.6813 10.4625C29.6438 10.3563 29.6063 10.2563 29.575 10.15L29.4625 9.85001C29.425 9.75001 29.3875 9.64376 29.3438 9.54376C29.3 9.44376 29.275 9.37501 29.2375 9.28751C29.2277 9.25727 29.2151 9.22798 29.2 9.20001C29.2 9.11876 29.1313 9.03126 29.0938 8.95001C29 8.75001 28.9063 8.55001 28.8063 8.35626L28.6563 8.06251L28.525 7.81876C28.4625 7.71251 28.4 7.60001 28.3313 7.49376C28.2625 7.38751 28.2375 7.33126 28.1875 7.25001L28.15 7.19376C28.1 7.10626 28.0438 7.02501 27.9875 6.93751C27.9785 6.92 27.9681 6.90327 27.9563 6.88751L27.8063 6.66876L27.65 6.44376L27.3438 6.25001C27.25 6.11876 27.1563 5.98751 27.0563 5.86251L26.9875 5.77501C26.8 5.53751 26.6063 5.30626 26.4063 5.07501L26.325 5.00001C25.9878 4.62527 25.631 4.26852 25.2563 3.93126L25.125 3.81251C24.9438 3.64376 24.7563 3.48751 24.5625 3.33126L24.4313 3.23126C24.2875 3.11876 24.1438 3.00626 23.9938 2.90001L23.8625 2.80626C23.7125 2.69376 23.5563 2.58751 23.4 2.48751L23.1625 2.33126L22.925 2.18751L22.825 2.12501C22.4625 1.91251 22.0938 1.71251 21.7125 1.50001L21.5063 1.40001L21.375 1.33751L21.15 1.25001L21.0438 1.20001L20.625 1.03751L20.4938 0.987512L20.2438 0.893762L19.9875 0.806262L19.8625 0.762512L19.4188 0.625012L19.2375 0.575012L18.9375 0.487512L18.7 0.431262C18.425 0.362512 18.125 0.306262 17.875 0.256262L17.6563 0.212512H17.6188H17.3938H17.2188L16.875 0.106262H16.6813H16.4125H16.2813H15.8938H14.325H13.9438H13.8125H13.5438H13.3438L13.0188 0.150012H12.8375L12.575 0.187512L12.3563 0.231262C12.0813 0.281262 11.8063 0.337512 11.5375 0.406262L11.25 0.487512L10.9438 0.575012L10.7938 0.625012L10.3875 0.750012L10.2688 0.793762L10 0.881262L9.75002 0.975012L9.61877 1.02501L9.19377 1.20001L9.05627 1.25001L8.85002 1.33751C8.80656 1.35454 8.76472 1.37546 8.72502 1.40001L8.51877 1.50001C8.13752 1.68751 7.76877 1.88751 7.40627 2.12501L7.30627 2.18751L7.06877 2.33126L6.81252 2.50001C6.65835 2.60001 6.5021 2.70626 6.34377 2.81876L6.21252 2.91251C6.06877 3.01876 5.91877 3.13126 5.78127 3.24376L5.62502 3.32501C5.43752 3.48126 5.25002 3.63751 5.06252 3.80626L4.93127 3.92501C4.56277 4.26479 4.21229 4.62362 3.88127 5.00001L3.80627 5.08751C3.60002 5.31876 3.40627 5.55001 3.22502 5.78751L3.12502 5.86876C3.02502 5.99376 2.93127 6.12501 2.83752 6.25626L2.76252 6.36251L2.60627 6.58751C2.55627 6.65626 2.50627 6.73126 2.46252 6.80626L2.44377 6.87501L2.28127 7.13126C2.27921 7.14996 2.27921 7.16882 2.28127 7.18751L2.13127 7.43126L1.94377 7.75626C1.90002 7.83751 1.85002 7.91876 1.81252 8.00001L1.65627 8.29376C1.55627 8.48751 1.46252 8.68751 1.37502 8.88751C1.37502 8.96876 1.30627 9.05626 1.26877 9.13751L1.23127 9.22501L1.12502 9.48126L1.00627 9.78751C0.96877 9.88751 0.93127 9.98751 0.90002 10.0875C0.86252 10.1938 0.82502 10.2938 0.79377 10.4L0.62502 10.7188V10.7875L0.55002 11.0438C0.55002 11.0438 0.55002 11.1125 0.55002 11.15C0.55002 11.1875 0.50627 11.3 0.48752 11.375L0.41252 11.6813C0.41252 11.775 0.36877 11.8688 0.35002 11.9625V12.0375C0.35002 12.0375 0.35002 12.0375 0.35002 12.075C0.35002 12.1125 0.35002 12.2375 0.30002 12.3188V12.3563C0.30002 12.4563 0.30002 12.5563 0.25002 12.6625C0.247096 12.6748 0.247096 12.6877 0.25002 12.7C0.25002 12.7875 0.25002 12.875 0.21252 12.9688C0.209577 12.9916 0.209577 13.0147 0.21252 13.0375C0.21252 13.1188 0.21252 13.1938 0.21252 13.275C0.209739 13.3166 0.209739 13.3584 0.21252 13.4C0.21252 13.4875 0.21252 13.575 0.21252 13.6625C0.21252 13.75 0.21252 13.925 0.21252 14.0563C0.21252 14.1875 0.21252 14.2188 0.21252 14.3C0.215536 14.3354 0.215536 14.3709 0.21252 14.4063C0.21252 14.5 0.21252 14.5938 0.21252 14.6875V14.75C0.21252 14.8563 0.21252 14.9688 0.21252 15.0813C0.21252 15.1938 0.21252 15.3375 0.21252 15.4688V15.6625C0.21252 15.7438 0.21252 15.825 0.21252 15.9125C0.21252 16 0.21252 16.0375 0.21252 16.1C0.21252 16.1625 0.21252 16.1938 0.21252 16.2438C0.21252 16.2938 0.21252 16.325 0.21252 16.3688C0.209433 16.4125 0.209433 16.4563 0.21252 16.5V16.7C0.21252 16.7438 0.21252 16.7875 0.21252 16.825V17C0.21252 17.0688 0.21252 17.1313 0.21252 17.1938C0.21252 17.2563 0.21252 17.4 0.25627 17.5C0.30002 17.6 0.25627 17.6313 0.25627 17.6938L0.29377 17.8875C0.296821 17.9187 0.296821 17.9501 0.29377 17.9813C0.29377 18.0813 0.33752 18.175 0.35627 18.275C0.37502 18.375 0.44377 18.6625 0.49377 18.8563L0.64377 19.3938C0.840626 20.0535 1.08287 20.6987 1.36877 21.325C1.387 21.372 1.40786 21.4179 1.43127 21.4625C1.50627 21.6188 1.58127 21.7813 1.66252 21.9375L1.83752 22.275C1.99585 22.5583 2.15835 22.8333 2.32502 23.1L2.42502 23.2625C3.08418 24.2789 3.86032 25.2145 4.73752 26.05L4.88127 26.175L4.96252 26.2438L5.19377 26.4563C6.29221 27.3892 7.63472 27.9883 9.0627 28.1827C10.4907 28.3771 11.9445 28.1588 13.2524 27.5535C14.5602 26.9482 15.6676 25.9812 16.4435 24.7668C17.2194 23.5523 17.6316 22.1412 17.6313 20.7V16.1875H15.1313C14.4682 16.1875 13.8323 16.4509 13.3635 16.9197C12.8947 17.3886 12.6313 18.0245 12.6313 18.6875V20.6625C12.6413 21.3378 12.3831 21.9894 11.9132 22.4745C11.4433 22.9596 10.8003 23.2385 10.125 23.25C9.53253 23.2638 8.9544 23.0667 8.49377 22.6938C8.44073 22.6536 8.3906 22.6098 8.34377 22.5625L8.28752 22.5C7.25991 21.5599 6.44001 20.4155 5.88035 19.1401C5.32069 17.8647 5.03362 16.4865 5.03752 15.0938C5.03985 13.2801 5.53204 11.5007 6.46208 9.94357C7.39213 8.38648 8.72549 7.10952 10.3213 6.24759C11.9171 5.38567 13.7161 4.9708 15.5282 5.0468C17.3403 5.12281 19.0983 5.68687 20.6163 6.6794C22.1343 7.67193 23.3561 9.05607 24.1524 10.6856C24.9488 12.3151 25.2903 14.1294 25.1407 15.937C24.9912 17.7445 24.3562 19.4781 23.3028 20.9545C22.2494 22.431 20.8168 23.5955 19.1563 24.325C18.6991 24.5157 18.3089 24.8379 18.0352 25.2508C17.7614 25.6636 17.6165 26.1484 17.6188 26.6438V30C18.8121 29.7995 19.9768 29.4553 21.0875 28.975H21.15L21.4 28.8625L21.65 28.7438L21.9063 28.6188L22.1313 28.5L22.3125 28.4063L22.45 28.3313L22.7188 28.1813C22.8938 28.0813 23.0625 27.975 23.2375 27.8625L23.375 27.775C23.625 27.6063 23.875 27.4313 24.1125 27.25L24.2625 27.1438L24.6875 26.8C24.7813 26.725 24.875 26.65 24.9625 26.5688L25.1 26.45L25.3688 26.2063L25.5 26.0813L25.6313 25.9563L25.8875 25.7C26.0125 25.5688 26.1375 25.4375 26.2563 25.3L26.3813 25.1688L26.5 25.0313L26.6188 24.8938L26.7313 24.7563C26.85 24.6188 26.9625 24.475 27.0688 24.3313C27.175 24.1875 27.2188 24.1375 27.2875 24.0375C27.3563 23.9375 27.3625 23.9438 27.3938 23.8938L27.6063 23.5938L27.7063 23.4438C27.7688 23.3375 27.8375 23.2375 27.9 23.1375L27.9938 22.9813C28.0625 22.875 28.1188 22.7688 28.1813 22.6688L28.2688 22.5125L28.4438 22.1875L28.5188 22.05L28.6125 21.8625L28.725 21.6313L28.8375 21.3875C28.8375 21.325 28.8938 21.2625 28.925 21.1938C28.9563 21.125 28.975 21.0813 28.9938 21.025L29.0688 20.8563L29.1625 20.6125C29.1625 20.5375 29.225 20.4563 29.25 20.3813C29.275 20.3063 29.3188 20.2 29.35 20.1063C29.3813 20.0125 29.4063 19.9438 29.4313 19.8563C29.4563 19.7688 29.4938 19.6813 29.5188 19.5938L29.5938 19.3313C29.5938 19.2563 29.6375 19.1875 29.6563 19.1188C29.675 19.05 29.6563 19.0438 29.6563 19.0063C29.6679 18.9493 29.6825 18.893 29.7 18.8375C29.7 18.7188 29.7563 18.6063 29.7813 18.4875C29.8063 18.3688 29.7813 18.3563 29.825 18.2938C29.8688 18.2313 29.8688 18.0813 29.8875 17.9813C29.9063 17.8813 29.9188 17.7938 29.9375 17.7L29.975 17.4813C29.975 17.4188 29.975 17.3625 30.0063 17.3063C30.0063 17.2438 30.0063 17.1813 30.0063 17.1188C30.0063 17.0563 30.0063 16.975 30.0063 16.9C30.0063 16.825 30.0063 16.725 30.0063 16.6313V16.3625C30.0063 16.3625 30.0063 16.3625 30.0063 16.325C30.0063 16.2875 30.0063 16.175 30.0063 16.1C30.0063 16.025 30.0063 16.0188 30.0063 15.9813C30.0063 15.9438 30.0063 15.8438 30.0063 15.775C30.0063 15.7063 30.0063 15.5813 30.0063 15.4875V14.8625L30.2063 14.775Z" fill="#FF2E2E"/>
<path d="M14.725 8.23126C15.4925 8.23126 16.2286 8.53614 16.7712 9.07882C17.3139 9.62151 17.6188 10.3575 17.6188 11.125V14.0188H14.725C13.9576 14.0188 13.2215 13.7139 12.6789 13.1712C12.1362 12.6285 11.8313 11.8925 11.8313 11.125C11.8313 10.3575 12.1362 9.62151 12.6789 9.07882C13.2215 8.53614 13.9576 8.23126 14.725 8.23126Z" fill="#FF2E2E"/>
<path d="M45.1001 15.3063L43.1813 15.0438C42.6652 15.0108 42.1709 14.8235 41.7625 14.5063C41.6313 14.3651 41.5303 14.1986 41.4658 14.017C41.4013 13.8353 41.3747 13.6424 41.3875 13.45C41.3827 13.247 41.4274 13.0459 41.5178 12.864C41.6082 12.6821 41.7415 12.525 41.9063 12.4063C42.4415 12.103 43.0557 11.968 43.6688 12.0188C44.3945 12.0208 45.1111 12.1807 45.7688 12.4875C46.4651 12.8024 47.0999 13.2383 47.6438 13.775L50.4126 10.9375C49.9751 10.5313 49.5376 10.1563 49.0938 9.81879C48.6391 9.47904 48.1462 9.19376 47.625 8.96879C47.0383 8.7274 46.426 8.55337 45.8 8.45004C45.0192 8.32234 44.2288 8.2617 43.4375 8.26879C42.5051 8.2568 41.5767 8.39395 40.6875 8.67504C39.9257 8.92102 39.2174 9.30912 38.6 9.81879C38.0312 10.2979 37.5764 10.8979 37.2688 11.575C36.9458 12.2872 36.7836 13.0618 36.7938 13.8438C36.7938 16.8813 38.7167 18.6396 42.5625 19.1188L44.375 19.375C45.525 19.525 46.1 20 46.1 20.8063C46.1082 21.0342 46.0619 21.2607 45.9652 21.4672C45.8685 21.6736 45.7241 21.8542 45.5438 21.9938C44.9467 22.347 44.2532 22.5024 43.5625 22.4375C42.6938 22.4486 41.8355 22.2469 41.0625 21.85C40.3011 21.4392 39.6177 20.8976 39.0438 20.25L36.2063 23.125C37.0968 24.1467 38.2074 24.953 39.4545 25.4835C40.7016 26.0139 42.0527 26.2547 43.4063 26.1875C44.4262 26.1996 45.442 26.0563 46.4188 25.7625C47.2578 25.5167 48.0426 25.1137 48.7313 24.575C49.3532 24.0889 49.8609 23.4724 50.2188 22.7688C50.5664 22.0589 50.744 21.2779 50.7375 20.4875C50.7375 17.5375 48.8584 15.8105 45.1001 15.3063Z" fill="#FF2E2E"/>
<path d="M67.9438 18.4375V17C67.947 15.8829 67.7977 14.7705 67.5 13.6938C67.2294 12.6784 66.7529 11.7296 66.1 10.9063C65.4283 10.0799 64.572 9.4227 63.6 8.9875C62.4681 8.48423 61.2384 8.23873 60 8.26875C58.8279 8.24402 57.6629 8.45661 56.575 8.89375C55.6156 9.29873 54.7608 9.91635 54.075 10.7C53.3578 11.5232 52.8212 12.4877 52.5 13.5313C52.1367 14.7176 51.9596 15.9531 51.975 17.1938C51.9556 18.4531 52.1327 19.7078 52.5 20.9125C52.8273 21.9632 53.3773 22.9311 54.1125 23.75C54.8321 24.53 55.7158 25.1405 56.7 25.5375C57.8098 25.9741 58.9951 26.1865 60.1875 26.1625C61.6188 26.1862 63.041 25.9315 64.375 25.4125C65.5233 24.9657 66.5463 24.2473 67.3563 23.3188L64.9438 20.3125C64.4195 20.8618 63.8296 21.3446 63.1875 21.75C62.4493 22.1874 61.6013 22.4042 60.7438 22.375C60.223 22.4217 59.6983 22.3579 59.2039 22.1877C58.7095 22.0175 58.2567 21.7448 57.875 21.3875C57.2367 20.6521 56.9095 19.6973 56.9625 18.725V18.4375H67.9438ZM56.9625 15.3125C56.9189 14.3876 57.2145 13.4786 57.7938 12.7563C58.0797 12.4327 58.4352 12.1781 58.8335 12.0114C59.2318 11.8448 59.6626 11.7703 60.0938 11.7938C60.5057 11.7631 60.9188 11.8349 61.2961 12.0029C61.6735 12.1708 62.0034 12.4297 62.2563 12.7563C62.7489 13.4942 62.9941 14.3698 62.9563 15.2563V15.625H56.9625V15.3125Z" fill="#FF2E2E"/>
<path d="M100.463 10.4938V21.3625C100.464 22.7189 99.975 24.03 99.0861 25.0544C98.1972 26.0789 96.968 26.7476 95.625 26.9375C95.3564 26.9804 95.0846 27.0013 94.8125 27C94.5384 27.0012 94.2646 26.9803 93.9938 26.9375C92.6542 26.7435 91.4295 26.073 90.5444 25.0489C89.6593 24.0249 89.1731 22.7161 89.175 21.3625V15.4375C89.175 13.2708 88.3938 12.1854 86.8313 12.1813C86.1296 12.178 85.4448 12.3967 84.875 12.8063C84.5821 13.0193 84.3477 13.3028 84.1937 13.6306C84.0396 13.9584 83.9709 14.3198 83.9938 14.6813V25.7625H79.1875V15.4375C79.1875 13.2688 78.4 12.1813 76.8375 12.1813C76.4907 12.179 76.1454 12.2275 75.8125 12.325C75.4798 12.421 75.1695 12.5825 74.9 12.8C74.6399 13.0193 74.4272 13.2894 74.275 13.5938C74.1075 13.9336 74.0239 14.3087 74.0313 14.6875V25.7625H69.2063V11.3875C69.2063 10.6648 69.4934 9.97169 70.0044 9.46065C70.5155 8.94961 71.2086 8.66252 71.9313 8.66252H74.0313V11.5625H74.225C74.5253 10.6583 75.0653 9.85258 75.7875 9.23127C76.6452 8.54852 77.7244 8.20584 78.8188 8.26877C79.8868 8.23774 80.9372 8.54629 81.8188 9.15002C82.6805 9.78947 83.3085 10.6941 83.6063 11.725H83.7063C84.0323 10.7194 84.6944 9.85656 85.5813 9.28127C86.055 8.96715 86.5705 8.72101 87.1125 8.55002C87.7018 8.35867 88.318 8.2637 88.9375 8.26877C89.6559 8.23328 90.3722 8.37222 91.0252 8.67369C91.6783 8.97517 92.2486 9.43024 92.6875 10C93.5778 11.3338 94.036 12.9093 94 14.5125C94 14.6813 94 14.85 94 15.0188V21.3625C94.0008 21.473 94.0237 21.5822 94.0675 21.6837C94.1113 21.7851 94.175 21.8768 94.2549 21.9531C94.3347 22.0295 94.4291 22.089 94.5324 22.1282C94.6357 22.1674 94.7459 22.1855 94.8563 22.1813C95.0695 22.1608 95.2672 22.0606 95.4097 21.9007C95.5523 21.7408 95.6292 21.5329 95.625 21.3188V13.1938C95.625 12.4711 95.9121 11.7779 96.4232 11.2669C96.9342 10.7559 97.6273 10.4688 98.35 10.4688L100.463 10.4938Z" fill="#FF2E2E"/>
<path d="M113.269 19.7688C113.046 20.4407 112.684 21.0583 112.206 21.5813C111.925 21.852 111.59 22.06 111.223 22.1914C110.855 22.3228 110.464 22.3748 110.075 22.3438C109.656 22.3722 109.236 22.3002 108.85 22.1339C108.464 21.9676 108.123 21.7118 107.856 21.3875C107.324 20.6359 107.062 19.726 107.113 18.8063V15.625C107.062 14.7053 107.324 13.7954 107.856 13.0438C108.123 12.7195 108.464 12.4637 108.85 12.2974C109.236 12.1311 109.656 12.0591 110.075 12.0875C110.801 12.0447 111.515 12.2894 112.063 12.7688C112.535 13.2175 112.863 13.796 113.006 14.4313L116.919 12.7375C116.467 11.398 115.589 10.2432 114.419 9.45002C113.113 8.62456 111.587 8.21484 110.044 8.27502C108.874 8.25585 107.712 8.46826 106.625 8.90002C105.662 9.29221 104.805 9.90689 104.125 10.6938C103.429 11.5197 102.908 12.4788 102.594 13.5125C102.231 14.7096 102.056 15.9556 102.075 17.2063C102.057 18.4651 102.232 19.7192 102.594 20.925C102.908 21.9642 103.436 22.9264 104.144 23.75C104.829 24.5293 105.685 25.1409 106.644 25.5375C107.729 25.9753 108.892 26.188 110.063 26.1625C111.583 26.2055 113.082 25.8013 114.375 25C115.633 24.1309 116.557 22.8588 116.994 21.3938L113.269 19.7688Z" fill="#FF2E2E"/>
<path d="M133.75 13.4813C133.415 12.4459 132.878 11.4877 132.169 10.6625C131.481 9.88906 130.626 9.28211 129.669 8.88751C127.497 8.0628 125.097 8.0628 122.925 8.88751C121.968 9.28134 121.113 9.88841 120.425 10.6625C119.711 11.4845 119.173 12.4437 118.844 13.4813C118.46 14.6807 118.272 15.9344 118.288 17.1938C118.272 18.4552 118.46 19.7109 118.844 20.9125C119.163 21.9521 119.688 22.917 120.388 23.75C121.071 24.5334 121.927 25.1475 122.888 25.5438C125.06 26.3685 127.459 26.3685 129.631 25.5438C130.592 25.1469 131.448 24.5329 132.131 23.75C132.853 22.9207 133.404 21.9562 133.75 20.9125C134.132 19.7105 134.318 18.4548 134.3 17.1938C134.318 15.9347 134.132 14.6811 133.75 13.4813ZM129.281 18.9563C129.34 19.8567 129.064 20.7471 128.506 21.4563C127.906 22.0228 127.113 22.3384 126.288 22.3384C125.462 22.3384 124.669 22.0228 124.069 21.4563C123.509 20.748 123.23 19.8575 123.288 18.9563V15.4688C123.23 14.5675 123.509 13.677 124.069 12.9688C124.669 12.4022 125.462 12.0866 126.288 12.0866C127.113 12.0866 127.906 12.4022 128.506 12.9688C129.064 13.6779 129.34 14.5683 129.281 15.4688V18.9563Z" fill="#FF2E2E"/>
<path d="M140.838 20.7563V3H136.019V21.075C135.933 22.344 136.348 23.596 137.175 24.5625C137.946 25.3625 139.156 25.7625 140.806 25.7625H144.144V22.0125H142.106C141.94 22.015 141.775 21.9843 141.621 21.9222C141.466 21.8601 141.326 21.7679 141.208 21.6509C141.09 21.5339 140.996 21.3945 140.933 21.2409C140.869 21.0873 140.837 20.9225 140.838 20.7563Z" fill="#FF2E2E"/>
<path d="M160.356 13.4813C160.026 12.4452 159.491 11.4865 158.781 10.6625C158.092 9.8902 157.238 9.28345 156.281 8.88751C154.109 8.0628 151.71 8.0628 149.537 8.88751C148.58 9.28134 147.725 9.88841 147.037 10.6625C146.324 11.4845 145.786 12.4437 145.456 13.4813C145.074 14.6811 144.889 15.9347 144.906 17.1938C144.889 18.4548 145.074 19.7105 145.456 20.9125C145.781 21.9536 146.313 22.9186 147.019 23.75C147.702 24.5334 148.558 25.1475 149.519 25.5438C151.691 26.3685 154.09 26.3685 156.263 25.5438C157.222 25.1451 158.077 24.5314 158.763 23.75C159.471 22.9206 160.006 21.958 160.338 20.9188C160.722 19.7171 160.909 18.4614 160.894 17.2C160.916 15.9396 160.735 14.6838 160.356 13.4813ZM155.894 18.9563C155.953 19.8578 155.675 20.7491 155.112 21.4563C154.514 22.0224 153.721 22.3378 152.897 22.3378C152.073 22.3378 151.28 22.0224 150.681 21.4563C150.121 20.748 149.843 19.8575 149.9 18.9563V15.4688C149.843 14.5675 150.121 13.677 150.681 12.9688C151.28 12.4026 152.073 12.0872 152.897 12.0872C153.721 12.0872 154.514 12.4026 155.112 12.9688C155.675 13.6759 155.953 14.5673 155.894 15.4688V18.9563Z" fill="#FF2E2E"/>
<path d="M175.919 9.99998C175.443 9.40822 174.832 8.93971 174.136 8.63403C173.441 8.32835 172.683 8.19448 171.925 8.24373C170.779 8.1774 169.649 8.53563 168.75 9.24998C168.015 9.86011 167.462 10.6599 167.15 11.5625H166.956V8.66248H164.863C164.505 8.66248 164.15 8.73296 163.82 8.8699C163.489 9.00685 163.189 9.20757 162.936 9.46061C162.683 9.71365 162.482 10.0141 162.345 10.3447C162.208 10.6753 162.138 11.0296 162.138 11.3875V25.7625H166.956V14.6875C166.949 14.3065 167.039 13.9299 167.219 13.5937C167.393 13.2822 167.631 13.0116 167.919 12.8C168.217 12.5801 168.554 12.419 168.913 12.325C169.284 12.2269 169.666 12.1785 170.05 12.1812C170.405 12.1375 170.766 12.1885 171.095 12.329C171.424 12.4695 171.711 12.6945 171.925 12.9812C172.328 13.734 172.51 14.5856 172.45 15.4375V25.7625H177.269V15.0437C177.269 12.8771 176.819 11.1958 175.919 9.99998Z" fill="#FF2E2E"/>
<path d="M100.462 8.45625H97.7312C97.0069 8.45625 96.3122 8.16849 95.8 7.65629C95.2878 7.14408 95 6.44937 95 5.725C95 5.00229 95.2871 4.30917 95.7981 3.79813C96.3092 3.2871 97.0023 3 97.725 3C98.4483 3 99.142 3.2869 99.6541 3.79775C100.166 4.30861 100.455 5.00171 100.456 5.725L100.462 8.45625Z" fill="#FF2E2E"/>
</g>
<defs>
<clipPath id="clip0_2_1424">
<rect width="177.269" height="30" fill="white"/>
</clipPath>
</defs>
</svg>
