<svg width="32" height="28" viewBox="0 0 32 28" fill="none" xmlns="http://www.w3.org/2000/svg">
<path d="M22.8182 27V24.1112C22.8182 22.5788 22.2435 21.1092 21.2206 20.0256C20.1977 18.9421 18.8103 18.3334 17.3636 18.3334H6.45455C5.00791 18.3334 3.62053 18.9421 2.5976 20.0256C1.57467 21.1092 1 22.5788 1 24.1112V27" stroke="white" stroke-width="2" stroke-linecap="round" stroke-linejoin="round"/>
<path d="M11.9091 12.5556C14.9215 12.5556 17.3636 9.96876 17.3636 6.77778C17.3636 3.5868 14.9215 1 11.9091 1C8.89661 1 6.45453 3.5868 6.45453 6.77778C6.45453 9.96876 8.89661 12.5556 11.9091 12.5556Z" stroke="white" stroke-width="2" stroke-linecap="round" stroke-linejoin="round"/>
<path d="M31 27V24.1111C30.9991 22.8309 30.5968 21.5873 29.8564 20.5756C29.1159 19.5638 28.0792 18.8412 26.9091 18.5211" stroke="white" stroke-width="2" stroke-linecap="round" stroke-linejoin="round"/>
<path d="M21.4546 1.18774C22.6279 1.50596 23.6678 2.22876 24.4105 3.24219C25.1531 4.25563 25.5562 5.50205 25.5562 6.78497C25.5562 8.06788 25.1531 9.3143 24.4105 10.3277C23.6678 11.3412 22.6279 12.064 21.4546 12.3822" stroke="white" stroke-width="2" stroke-linecap="round" stroke-linejoin="round"/>
</svg>
