<svg width="25" height="27" viewBox="0 0 25 27" fill="none" xmlns="http://www.w3.org/2000/svg">
<path fill-rule="evenodd" clip-rule="evenodd" d="M13.3339 0.50061C14.2289 0.50061 15.0989 0.86811 15.7227 1.50686C16.3452 2.14936 16.6889 3.03061 16.6627 3.92436C16.6652 4.12561 16.7314 4.35811 16.8514 4.56186C17.0502 4.89936 17.3639 5.13686 17.7364 5.23436C18.1089 5.32686 18.4989 5.27686 18.8302 5.08061C20.4302 4.16686 22.4664 4.71436 23.3802 6.30186L24.1589 7.65061C24.1789 7.68686 24.1964 7.72186 24.2114 7.75811C25.0389 9.32186 24.4864 11.2906 22.9489 12.1894C22.7252 12.3181 22.5439 12.4981 22.4189 12.7156C22.2252 13.0519 22.1714 13.4519 22.2689 13.8194C22.3689 14.1944 22.6077 14.5056 22.9439 14.6981C23.7027 15.1344 24.2689 15.8694 24.4952 16.7181C24.7214 17.5656 24.5977 18.4856 24.1564 19.2444L23.3264 20.6269C22.4127 22.1969 20.3764 22.7406 18.7927 21.8256C18.5814 21.7044 18.3377 21.6381 18.0952 21.6319H18.0877C17.7264 21.6319 17.3552 21.7856 17.0852 22.0544C16.8114 22.3281 16.6614 22.6931 16.6639 23.0806C16.6552 24.9169 15.1614 26.4019 13.3339 26.4019H11.7677C9.93141 26.4019 8.43766 24.9094 8.43766 23.0731C8.43516 22.8469 8.37016 22.6119 8.24891 22.4081C8.05266 22.0656 7.73516 21.8206 7.36891 21.7231C7.00516 21.6256 6.60641 21.6794 6.27891 21.8694C5.49391 22.3069 4.57016 22.4131 3.72516 22.1756C2.88141 21.9369 2.15266 21.3569 1.72516 20.5881L0.943906 19.2419C0.0301556 17.6569 0.573906 15.6256 2.15641 14.7106C2.60516 14.4519 2.88391 13.9694 2.88391 13.4519C2.88391 12.9344 2.60516 12.4506 2.15641 12.1919C0.572656 11.2719 0.0301556 9.23561 0.942656 7.65061L1.79016 6.25936C2.69141 4.69186 4.72891 4.13936 6.31766 5.05186C6.53391 5.18061 6.76891 5.24561 7.00766 5.24811C7.78641 5.24811 8.43766 4.60561 8.45016 3.81561C8.44516 2.94436 8.78891 2.10811 9.41516 1.47686C10.0439 0.84686 10.8789 0.50061 11.7677 0.50061H13.3339ZM13.3339 2.37561H11.7677C11.3802 2.37561 11.0177 2.52686 10.7439 2.79936C10.4714 3.07311 10.3227 3.43686 10.3252 3.82436C10.2989 5.65186 8.80516 7.12311 6.99641 7.12311C6.41641 7.11686 5.85766 6.96061 5.37266 6.67061C4.69141 6.28311 3.80141 6.52186 3.40266 7.21561L2.55641 8.60686C2.16891 9.27936 2.40641 10.1681 3.09641 10.5694C4.12016 11.1619 4.75891 12.2669 4.75891 13.4519C4.75891 14.6369 4.12016 15.7406 3.09391 16.3344C2.40766 16.7319 2.17016 17.6156 2.56766 18.3031L3.35641 19.6631C3.55141 20.0144 3.87016 20.2681 4.23891 20.3719C4.60641 20.4744 5.01141 20.4306 5.34891 20.2431C5.84516 19.9519 6.42266 19.8006 7.00266 19.8006C7.28891 19.8006 7.57516 19.8369 7.85516 19.9119C8.70016 20.1394 9.43391 20.7044 9.86891 21.4631C10.1514 21.9394 10.3077 22.4956 10.3127 23.0631C10.3127 23.8756 10.9652 24.5269 11.7677 24.5269H13.3339C14.1327 24.5269 14.7852 23.8794 14.7889 23.0806C14.7839 22.1981 15.1289 21.3594 15.7602 20.7281C16.3827 20.1056 17.2527 19.7319 18.1227 19.7569C18.6927 19.7706 19.2414 19.9244 19.7252 20.1994C20.4214 20.5981 21.3102 20.3606 21.7127 19.6731L22.5427 18.2894C22.7277 17.9706 22.7814 17.5706 22.6827 17.2019C22.5852 16.8331 22.3402 16.5131 22.0102 16.3244C21.2377 15.8794 20.6864 15.1619 20.4577 14.3019C20.2314 13.4581 20.3552 12.5369 20.7964 11.7781C21.0839 11.2781 21.5052 10.8569 22.0102 10.5669C22.6877 10.1706 22.9252 9.28436 22.5314 8.59436C22.5152 8.56686 22.5002 8.53811 22.4877 8.50811L21.7552 7.23811C21.3564 6.54436 20.4689 6.30561 19.7727 6.70186C19.0202 7.14686 18.1252 7.27436 17.2652 7.04811C16.4064 6.82561 15.6864 6.28186 15.2377 5.51436C14.9502 5.03436 14.7939 4.47561 14.7889 3.90686C14.8002 3.47936 14.6502 3.09561 14.3777 2.81436C14.1064 2.53436 13.7252 2.37561 13.3339 2.37561ZM12.5563 9.21824C14.89 9.21824 16.7888 11.1182 16.7888 13.452C16.7888 15.7857 14.89 17.6832 12.5563 17.6832C10.2225 17.6832 8.32378 15.7857 8.32378 13.452C8.32378 11.1182 10.2225 9.21824 12.5563 9.21824ZM12.5563 11.0932C11.2563 11.0932 10.1988 12.152 10.1988 13.452C10.1988 14.752 11.2563 15.8082 12.5563 15.8082C13.8563 15.8082 14.9138 14.752 14.9138 13.452C14.9138 12.152 13.8563 11.0932 12.5563 11.0932Z" fill="#00D689"/>
</svg>
