<svg width="35" height="40" viewBox="0 0 35 40" fill="none" xmlns="http://www.w3.org/2000/svg">
    <g clip-path="url(#clip0_487_140)">
        <path d="M33.0683 39.6579C34.135 39.6579 35 38.6784 35 37.4703V2.20999C35 1.00173 34.135 0.0224609 33.0683 0.0224609H1.9317C0.864609 0.0224609 0 1.00173 0 2.20999V37.4703C0 38.6784 0.864609 39.6579 1.9317 39.6579H33.0683" fill="#395185"/>
        <path d="M24.1492 39.6577V24.3088H28.6988L29.3799 18.3272H24.1492V14.5079C24.1492 12.7761 24.574 11.5958 26.7671 11.5958L29.5642 11.5944V6.24447C29.0802 6.17154 27.4199 6.00867 25.4883 6.00867C21.4554 6.00867 18.6945 8.79629 18.6945 13.9157V18.3272H14.1333V24.3088H18.6945V39.6577H24.1492Z" fill="white"/>
    </g>
    <defs>
        <clipPath id="clip0_487_140">
            <rect width="35" height="39.6352" fill="white" transform="translate(0 0.0224609)"/>
        </clipPath>
    </defs>
</svg>
