<svg width="31" height="36" viewBox="0 0 31 36" fill="none" xmlns="http://www.w3.org/2000/svg">
    <path d="M27.9338 15.1193H26.9019V15.0591H15.3725V20.8619H22.6123C21.5561 24.2399 18.7179 26.6647 15.3725 26.6647C11.1277 26.6647 7.6862 22.7674 7.6862 17.9605C7.6862 13.1536 11.1277 9.2563 15.3725 9.2563C17.3318 9.2563 19.1144 10.0934 20.4717 11.4606L24.0951 7.35733C21.8072 4.94264 18.7468 3.45349 15.3725 3.45349C8.2979 3.45349 2.56201 9.94902 2.56201 17.9605C2.56201 25.972 8.2979 32.4676 15.3725 32.4676C22.4471 32.4676 28.183 25.972 28.183 17.9605C28.183 16.9878 28.0946 16.0383 27.9338 15.1193Z" fill="#FFC107"/>
    <path d="M4.03906 11.2082L8.24794 14.7037C9.38679 11.5107 12.1449 9.2563 15.3725 9.2563C17.3318 9.2563 19.1144 10.0934 20.4717 11.4606L24.0951 7.35733C21.8072 4.94264 18.7468 3.45349 15.3725 3.45349C10.452 3.45349 6.18482 6.59934 4.03906 11.2082Z" fill="#FF3D00"/>
    <path d="M15.3723 32.4678C18.6812 32.4678 21.6879 31.0338 23.9611 28.7018L19.9962 24.9024C18.6669 26.0473 17.0424 26.6665 15.3723 26.665C12.0403 26.665 9.2111 24.259 8.14527 20.9014L3.96777 24.5463C6.08791 29.2444 10.3935 32.4678 15.3723 32.4678Z" fill="#4CAF50"/>
    <path d="M27.9339 15.1194H26.902V15.0592H15.3726V20.862H22.6124C22.1072 22.4697 21.1971 23.8745 19.9946 24.903L19.9965 24.9015L23.9613 28.7009C23.6808 28.9896 28.183 25.2141 28.183 17.9606C28.183 16.9879 28.0946 16.0384 27.9339 15.1194Z" fill="#1976D2"/>
</svg>
