<svg width="20" height="24" viewBox="0 0 30 34" fill="none" xmlns="http://www.w3.org/2000/svg">
<path d="M11.6053 29.0465C12.4385 28.8702 17.5155 28.8702 18.3487 29.0465C19.0609 29.211 19.8312 29.5954 19.8312 30.4347C19.7897 31.2337 19.321 31.9421 18.6733 32.392C17.8335 33.0466 16.8479 33.4612 15.8176 33.6106C15.2478 33.6845 14.6879 33.6862 14.138 33.6106C13.106 33.4612 12.1205 33.0466 11.2823 32.3903C10.633 31.9421 10.1642 31.2337 10.1228 30.4347C10.1228 29.5954 10.893 29.211 11.6053 29.0465ZM15.0754 0.333313C18.5423 0.333313 22.0837 1.97834 24.1874 4.70775C25.5523 6.46525 26.1785 8.22107 26.1785 10.9505V11.6605C26.1785 13.7537 26.7317 14.9875 27.9492 16.4093C28.8718 17.4567 29.1667 18.8013 29.1667 20.26C29.1667 21.717 28.688 23.1002 27.7289 24.2232C26.4733 25.5694 24.7026 26.4289 22.8954 26.5783C20.2766 26.8015 17.6561 26.9895 15.0008 26.9895C12.3439 26.9895 9.72508 26.8771 7.10625 26.5783C5.29743 26.4289 3.5267 25.5694 2.27277 24.2232C1.3137 23.1002 0.833332 21.717 0.833332 20.26C0.833332 18.8013 1.12983 17.4567 2.05081 16.4093C3.30639 14.9875 3.8232 13.7537 3.8232 11.6605V10.9505C3.8232 8.14721 4.52222 6.31418 5.96166 4.51975C8.10177 1.90281 11.5323 0.333313 14.9263 0.333313H15.0754Z" fill="#00D689"/>
</svg>
