<svg width="24" height="28" viewBox="0 0 40 40" fill="none" xmlns="http://www.w3.org/2000/svg">
<path d="M16.6053 32.0465C17.4385 31.8702 22.5155 31.8702 23.3487 32.0465C24.0609 32.211 24.8312 32.5954 24.8312 33.4347C24.7898 34.2337 24.321 34.9421 23.6733 35.392C22.8335 36.0466 21.8479 36.4612 20.8176 36.6106C20.2478 36.6845 19.6879 36.6862 19.138 36.6106C18.106 36.4612 17.1205 36.0466 16.2823 35.3903C15.633 34.9421 15.1642 34.2337 15.1228 33.4347C15.1228 32.5954 15.893 32.211 16.6053 32.0465ZM20.0754 3.33331C23.5423 3.33331 27.0837 4.97834 29.1874 7.70775C30.5523 9.46525 31.1785 11.2211 31.1785 13.9505V14.6605C31.1785 16.7537 31.7317 17.9875 32.9492 19.4093C33.8718 20.4567 34.1667 21.8013 34.1667 23.26C34.1667 24.717 33.688 26.1002 32.7289 27.2232C31.4733 28.5694 29.7026 29.4289 27.8954 29.5783C25.2766 29.8015 22.6561 29.9895 20.0008 29.9895C17.3439 29.9895 14.7251 29.8771 12.1063 29.5783C10.2974 29.4289 8.5267 28.5694 7.27277 27.2232C6.3137 26.1002 5.83333 24.717 5.83333 23.26C5.83333 21.8013 6.12983 20.4567 7.05081 19.4093C8.30639 17.9875 8.8232 16.7537 8.8232 14.6605V13.9505C8.8232 11.1472 9.52222 9.31418 10.9617 7.51975C13.1018 4.90281 16.5323 3.33331 19.9263 3.33331H20.0754Z" fill="#00D689"/>
<ellipse cx="28.3333" cy="6.66667" rx="6.66667" ry="6.66667" fill="#FF113A"/>
</svg>

